<svg width="104" height="22" viewBox="0 0 104 22" fill="none" xmlns="http://www.w3.org/2000/svg">
<path d="M32.284 17.852C32.6693 17.852 33.0546 17.8067 33.44 17.716C33.8253 17.6367 34.1823 17.4837 34.511 17.257C34.8396 17.019 35.0946 16.7243 35.276 16.373C35.4573 16.0103 35.5593 15.6363 35.582 15.251H34.222C34.2106 15.5457 34.103 15.812 33.899 16.05C33.695 16.2767 33.4456 16.4297 33.151 16.509C32.8676 16.5883 32.5786 16.628 32.284 16.628C31.9893 16.628 31.7003 16.577 31.417 16.475C31.145 16.3617 30.9126 16.1917 30.72 15.965C30.5386 15.727 30.414 15.4663 30.346 15.183C30.278 14.8997 30.244 14.6107 30.244 14.316V13.823H35.616V12.106C35.616 11.732 35.5763 11.3637 35.497 11.001C35.429 10.6383 35.293 10.2983 35.089 9.981C34.8963 9.65233 34.647 9.38033 34.341 9.165C34.0463 8.93833 33.7176 8.78533 33.355 8.706C32.9923 8.61533 32.624 8.57 32.25 8.57C31.876 8.57 31.5076 8.61533 31.145 8.706C30.7823 8.78533 30.448 8.93833 30.142 9.165C29.8473 9.38033 29.598 9.65233 29.394 9.981C29.2013 10.2983 29.0653 10.6383 28.986 11.001C28.918 11.3637 28.884 11.732 28.884 12.106V14.316C28.884 14.69 28.918 15.0583 28.986 15.421C29.0653 15.7837 29.207 16.1293 29.411 16.458C29.615 16.7753 29.87 17.0473 30.176 17.274C30.482 17.4893 30.8163 17.6367 31.179 17.716C31.5416 17.8067 31.91 17.852 32.284 17.852ZM30.244 12.599V12.106C30.244 11.8113 30.278 11.5223 30.346 11.239C30.414 10.9557 30.5386 10.7007 30.72 10.474C30.9013 10.236 31.128 10.066 31.4 9.964C31.6833 9.85067 31.9666 9.794 32.25 9.794C32.5446 9.794 32.828 9.85067 33.1 9.964C33.372 10.066 33.5986 10.236 33.78 10.474C33.9613 10.7007 34.086 10.9557 34.154 11.239C34.222 11.5223 34.256 11.8113 34.256 12.106V12.599H30.244Z" fill="#7209B7"/>
<path d="M37.775 17.716H43.725V16.492H41.549V5.221H38.013V6.445H40.189V16.492H37.775V17.716Z" fill="#7209B7"/>
<path d="M46.275 17.716H52.225V16.492H50.049V8.706H46.513V9.93H48.689V16.492H46.275V17.716ZM49.25 7.125C49.4426 7.125 49.624 7.08533 49.794 7.006C49.9753 6.92667 50.1056 6.802 50.185 6.632C50.2756 6.45067 50.321 6.26367 50.321 6.071C50.321 5.87833 50.2756 5.697 50.185 5.527C50.1056 5.34567 49.9753 5.21533 49.794 5.136C49.624 5.04533 49.4426 5 49.25 5C49.0573 5 48.8703 5.04533 48.689 5.136C48.519 5.21533 48.3943 5.34567 48.315 5.527C48.2356 5.697 48.196 5.87833 48.196 6.071C48.196 6.26367 48.2356 6.45067 48.315 6.632C48.3943 6.802 48.519 6.92667 48.689 7.006C48.8703 7.08533 49.0573 7.125 49.25 7.125Z" fill="#7209B7"/>
<path d="M54.52 17.716H55.88V17.257C55.88 17.0303 55.9196 16.8093 55.999 16.594C56.0896 16.3787 56.1973 16.1803 56.322 15.999C56.458 15.8063 56.5996 15.625 56.747 15.455L57.75 14.231L58.753 15.455C58.9003 15.625 59.0363 15.8063 59.161 15.999C59.297 16.1803 59.4046 16.3787 59.484 16.594C59.5746 16.8093 59.62 17.0303 59.62 17.257V17.716H60.98V17.257C60.98 16.9397 60.9176 16.628 60.793 16.322C60.6796 16.016 60.538 15.727 60.368 15.455C60.198 15.183 60.011 14.9223 59.807 14.673L58.6 13.211L59.807 11.749C60.011 11.4997 60.198 11.239 60.368 10.967C60.538 10.695 60.6796 10.406 60.793 10.1C60.9176 9.794 60.98 9.47667 60.98 9.148V8.706H59.62V9.148C59.62 9.37467 59.5746 9.59567 59.484 9.811C59.4046 10.0263 59.297 10.2303 59.161 10.423C59.0363 10.6157 58.9003 10.797 58.753 10.967L57.75 12.191L56.747 10.967C56.5996 10.797 56.458 10.6157 56.322 10.423C56.1973 10.2303 56.0896 10.0263 55.999 9.811C55.9196 9.59567 55.88 9.37467 55.88 9.148V8.706H54.52V9.148C54.52 9.47667 54.5766 9.794 54.69 10.1C54.8146 10.406 54.962 10.695 55.132 10.967C55.302 11.239 55.489 11.4997 55.693 11.749L56.9 13.211L55.693 14.673C55.489 14.9223 55.302 15.183 55.132 15.455C54.962 15.727 54.8146 16.016 54.69 16.322C54.5766 16.628 54.52 16.9397 54.52 17.257V17.716Z" fill="#7209B7"/>
<path d="M63.275 17.716H69.225V16.492H67.049V8.706H63.513V9.93H65.689V16.492H63.275V17.716ZM66.25 7.125C66.4426 7.125 66.624 7.08533 66.794 7.006C66.9753 6.92667 67.1056 6.802 67.185 6.632C67.2756 6.45067 67.321 6.26367 67.321 6.071C67.321 5.87833 67.2756 5.697 67.185 5.527C67.1056 5.34567 66.9753 5.21533 66.794 5.136C66.624 5.04533 66.4426 5 66.25 5C66.0573 5 65.8703 5.04533 65.689 5.136C65.519 5.21533 65.3943 5.34567 65.315 5.527C65.2356 5.697 65.196 5.87833 65.196 6.071C65.196 6.26367 65.2356 6.45067 65.315 6.632C65.3943 6.802 65.519 6.92667 65.689 7.006C65.8703 7.08533 66.0573 7.125 66.25 7.125Z" fill="#7209B7"/>
<path d="M72.54 17.716H73.9V12.939C73.9 12.667 73.9113 12.395 73.934 12.123C73.968 11.851 74.019 11.5847 74.087 11.324C74.1663 11.052 74.2796 10.797 74.427 10.559C74.5743 10.321 74.767 10.134 75.005 9.998C75.2543 9.862 75.515 9.794 75.787 9.794C75.957 9.794 76.1213 9.828 76.28 9.896C76.4386 9.964 76.5633 10.0717 76.654 10.219C76.7446 10.3663 76.8013 10.525 76.824 10.695C76.858 10.8537 76.875 11.018 76.875 11.188H78.235C78.235 10.8707 78.2066 10.5533 78.15 10.236C78.0933 9.91867 77.9743 9.624 77.793 9.352C77.6116 9.08 77.368 8.88167 77.062 8.757C76.7673 8.63233 76.4613 8.57 76.144 8.57C75.8606 8.57 75.583 8.63233 75.311 8.757C75.039 8.87033 74.8123 9.04033 74.631 9.267C74.4496 9.49367 74.2966 9.743 74.172 10.015C74.0586 10.2757 73.968 10.5477 73.9 10.831V8.706H72.54V17.716Z" fill="#7209B7"/>
<path d="M80.275 17.716H86.225V16.492H84.049V8.706H80.513V9.93H82.689V16.492H80.275V17.716ZM83.25 7.125C83.4426 7.125 83.624 7.08533 83.794 7.006C83.9753 6.92667 84.1056 6.802 84.185 6.632C84.2756 6.45067 84.321 6.26367 84.321 6.071C84.321 5.87833 84.2756 5.697 84.185 5.527C84.1056 5.34567 83.9753 5.21533 83.794 5.136C83.624 5.04533 83.4426 5 83.25 5C83.0573 5 82.8703 5.04533 82.689 5.136C82.519 5.21533 82.3943 5.34567 82.315 5.527C82.2356 5.697 82.196 5.87833 82.196 6.071C82.196 6.26367 82.2356 6.45067 82.315 6.632C82.3943 6.802 82.519 6.92667 82.689 7.006C82.8703 7.08533 83.0573 7.125 83.25 7.125Z" fill="#7209B7"/>
<path d="M91.223 17.852C91.5743 17.852 91.9143 17.7897 92.243 17.665C92.5716 17.5403 92.8493 17.342 93.076 17.07C93.314 16.798 93.4953 16.4977 93.62 16.169V17.716H94.98V8.706H93.62V14.316C93.62 14.5993 93.5916 14.8827 93.535 15.166C93.4783 15.438 93.365 15.693 93.195 15.931C93.0363 16.1577 92.8266 16.3333 92.566 16.458C92.3053 16.5713 92.0333 16.628 91.75 16.628C91.4666 16.628 91.1946 16.5713 90.934 16.458C90.6733 16.3333 90.458 16.1577 90.288 15.931C90.1293 15.693 90.0216 15.438 89.965 15.166C89.9083 14.8827 89.88 14.5993 89.88 14.316V8.706H88.52V14.316C88.52 14.6447 88.5426 14.979 88.588 15.319C88.6446 15.6477 88.7353 15.9707 88.86 16.288C88.996 16.594 89.1773 16.8773 89.404 17.138C89.6306 17.3873 89.9026 17.5687 90.22 17.682C90.5486 17.7953 90.883 17.852 91.223 17.852Z" fill="#7209B7"/>
<path d="M100.233 17.852C100.63 17.852 101.021 17.8123 101.406 17.733C101.803 17.6537 102.171 17.5063 102.511 17.291C102.851 17.0757 103.117 16.7923 103.31 16.441C103.514 16.0783 103.616 15.6987 103.616 15.302C103.616 15.03 103.565 14.7637 103.463 14.503C103.361 14.2423 103.214 14.0157 103.021 13.823C102.84 13.619 102.63 13.449 102.392 13.313C102.154 13.177 101.905 13.0637 101.644 12.973C101.395 12.8823 101.14 12.803 100.879 12.735C100.618 12.6557 100.358 12.582 100.097 12.514C99.8363 12.4347 99.5756 12.3497 99.315 12.259C99.0543 12.1683 98.8276 12.0153 98.635 11.8C98.4423 11.5847 98.346 11.341 98.346 11.069C98.346 10.8537 98.4083 10.6553 98.533 10.474C98.6576 10.2927 98.8163 10.151 99.009 10.049C99.2016 9.947 99.4 9.879 99.604 9.845C99.8193 9.811 100.035 9.794 100.25 9.794C100.465 9.794 100.675 9.811 100.879 9.845C101.094 9.879 101.298 9.95267 101.491 10.066C101.684 10.168 101.837 10.3153 101.95 10.508C102.063 10.6893 102.12 10.8877 102.12 11.103H103.48V11.086C103.48 10.7007 103.389 10.3323 103.208 9.981C103.027 9.62967 102.772 9.34633 102.443 9.131C102.126 8.91567 101.774 8.76833 101.389 8.689C101.015 8.60967 100.635 8.57 100.25 8.57C99.8646 8.57 99.4793 8.60967 99.094 8.689C98.72 8.76833 98.3686 8.92133 98.04 9.148C97.7113 9.36333 97.4563 9.65233 97.275 10.015C97.0936 10.3663 97.003 10.7347 97.003 11.12C97.003 11.392 97.054 11.6583 97.156 11.919C97.258 12.1683 97.3996 12.395 97.581 12.599C97.7736 12.803 97.989 12.973 98.227 13.109C98.465 13.245 98.7086 13.3583 98.958 13.449C99.2186 13.5283 99.4793 13.6077 99.74 13.687C100.001 13.7663 100.261 13.84 100.522 13.908C100.783 13.976 101.043 14.0553 101.304 14.146C101.565 14.2367 101.791 14.3897 101.984 14.605C102.177 14.8203 102.273 15.064 102.273 15.336C102.273 15.5627 102.199 15.7723 102.052 15.965C101.916 16.1463 101.746 16.288 101.542 16.39C101.338 16.4807 101.123 16.543 100.896 16.577C100.681 16.611 100.46 16.628 100.233 16.628C100.006 16.628 99.7796 16.611 99.553 16.577C99.3263 16.5317 99.111 16.458 98.907 16.356C98.703 16.254 98.533 16.1067 98.397 15.914C98.2723 15.7213 98.21 15.5117 98.21 15.285H96.85V15.302C96.85 15.6987 96.9463 16.0783 97.139 16.441C97.343 16.7923 97.615 17.0757 97.955 17.291C98.295 17.5063 98.6576 17.6537 99.043 17.733C99.4396 17.8123 99.8363 17.852 100.233 17.852Z" fill="#7209B7"/>
<path d="M22 6V1C22 0.447715 21.5523 0 21 0H16V6H22Z" fill="#F72585"/>
<path d="M22 8H16V14H22V8Z" fill="#F72585"/>
<path d="M16 22H21C21.5523 22 22 21.5523 22 21V16H16V22Z" fill="#F72585"/>
<path d="M14 0H8V10H14V0Z" fill="#B5179E"/>
<path d="M14 12H8V22H14V12Z" fill="#B5179E"/>
<path d="M6 0H1C0.447715 0 0 0.447715 0 1V21C0 21.5523 0.447715 22 1 22H6V0Z" fill="#7209B7"/>
</svg>
